<svg xmlns="http://www.w3.org/2000/svg" width="960" height="520" viewBox="0 0 960 520">
<rect width="100%" height="100%" fill="#ffffff"/>
<text x="480.0" y="34" text-anchor="middle" font-family="Arial" font-size="22" fill="#16232a">W07 suggested action mix</text>
<text x="208" y="107.9" text-anchor="end" font-family="Arial" font-size="13" fill="#27343b">refresh</text>
<rect x="220" y="70.0" width="700.0" height="58.3" fill="#426B69" rx="4"/>
<text x="928.0" y="107.9" font-family="Arial" font-size="13" fill="#27343b">1.17e+04</text>
<text x="208" y="176.2" text-anchor="end" font-family="Arial" font-size="13" fill="#27343b">monitor</text>
<rect x="220" y="138.3" width="581.0" height="58.3" fill="#426B69" rx="4"/>
<text x="809.0" y="176.2" font-family="Arial" font-size="13" fill="#27343b">9.72e+03</text>
<text x="208" y="244.6" text-anchor="end" font-family="Arial" font-size="13" fill="#27343b">refresh_and_review_ctr</text>
<rect x="220" y="206.7" width="376.1" height="58.3" fill="#426B69" rx="4"/>
<text x="604.1" y="244.6" font-family="Arial" font-size="13" fill="#27343b">6.3e+03</text>
<text x="208" y="312.9" text-anchor="end" font-family="Arial" font-size="13" fill="#27343b">refresh_and_review_engagement</text>
<rect x="220" y="275.0" width="112.3" height="58.3" fill="#426B69" rx="4"/>
<text x="340.3" y="312.9" font-family="Arial" font-size="13" fill="#27343b">1.88e+03</text>
<text x="208" y="381.3" text-anchor="end" font-family="Arial" font-size="13" fill="#27343b">protect</text>
<rect x="220" y="343.3" width="18.0" height="58.3" fill="#426B69" rx="4"/>
<text x="246.0" y="381.3" font-family="Arial" font-size="13" fill="#27343b">301</text>
<text x="208" y="449.6" text-anchor="end" font-family="Arial" font-size="13" fill="#27343b">expand_and_refresh</text>
<rect x="220" y="411.7" width="4.9" height="58.3" fill="#426B69" rx="4"/>
<text x="232.9" y="449.6" font-family="Arial" font-size="13" fill="#27343b">82</text>
</svg>